<svg width="75" height="75" viewBox="0 0 75 75" fill="none" xmlns="http://www.w3.org/2000/svg">
<circle cx="37.5" cy="37.5" r="37.5" fill="#0075EB"/>
<path d="M28.9635 50.216C26.9475 50.216 25.1355 49.844 23.5275 49.1C21.9195 48.356 20.6355 47.264 19.6755 45.824C18.7395 44.36 18.2715 42.596 18.2715 40.532C18.2715 39.092 18.5235 37.532 19.0275 35.852C20.1315 32.252 21.7995 29.66 24.0315 28.076C26.2635 26.468 28.6515 25.664 31.1955 25.664C32.5635 25.664 33.7755 25.868 34.8315 26.276C35.8875 26.684 36.8595 27.272 37.7475 28.04L38.7195 27.284C39.3675 26.78 39.9075 26.432 40.3395 26.24C40.7955 26.048 41.2995 25.952 41.8515 25.952C42.4515 25.952 42.9315 26.084 43.2915 26.348C43.6515 26.612 43.8315 26.996 43.8315 27.5C43.8315 27.764 43.7835 28.028 43.6875 28.292L41.6715 33.908C41.4555 34.556 41.1915 35.012 40.8795 35.276C40.5915 35.54 40.1475 35.672 39.5475 35.672C38.9235 35.672 38.4075 35.456 37.9995 35.024C37.6155 34.568 37.1715 33.8 36.6675 32.72C36.0915 31.592 35.6235 30.848 35.2635 30.488C34.9035 30.128 34.3755 29.948 33.6795 29.948C32.6955 29.948 31.7475 30.56 30.8355 31.784C29.9235 32.984 29.0955 34.796 28.3515 37.22C27.7275 39.26 27.4155 40.964 27.4155 42.332C27.4155 43.532 27.6435 44.432 28.0995 45.032C28.5555 45.608 29.1675 45.896 29.9355 45.896C31.0635 45.896 31.9875 45.644 32.7075 45.14C33.4515 44.636 34.2075 43.952 34.9755 43.088C35.4555 42.56 35.8395 42.176 36.1275 41.936C36.4395 41.672 36.7635 41.54 37.0995 41.54C37.5315 41.54 37.9875 41.756 38.4675 42.188C38.9475 42.62 39.1755 43.052 39.1515 43.484C39.1755 44.012 38.7435 44.828 37.8555 45.932C36.9915 47.036 35.7795 48.032 34.2195 48.92C32.6835 49.784 30.9315 50.216 28.9635 50.216ZM56.9938 26.024C57.4978 26.024 57.8818 26.108 58.1458 26.276C58.4338 26.42 58.5778 26.636 58.5778 26.924C58.5778 27.044 58.5418 27.2 58.4698 27.392C58.3978 27.56 58.2898 27.716 58.1458 27.86C58.0258 27.98 57.9058 28.076 57.7858 28.148C57.6898 28.196 57.6178 28.244 57.5698 28.292C57.1858 28.508 56.8738 28.748 56.6338 29.012C56.3938 29.276 56.1898 29.684 56.0218 30.236L51.6658 45.752C51.5698 46.064 51.5218 46.364 51.5218 46.652C51.5218 46.94 51.5578 47.18 51.6298 47.372C51.7258 47.564 51.8578 47.768 52.0258 47.984C52.2418 48.296 52.3498 48.548 52.3498 48.74C52.3498 48.788 52.3258 48.908 52.2778 49.1C52.1818 49.436 51.9658 49.676 51.6298 49.82C51.2938 49.94 50.7898 50 50.1178 50H41.6578C41.1538 50 40.7698 49.916 40.5058 49.748C40.2178 49.58 40.0738 49.352 40.0738 49.064C40.0738 48.92 40.1098 48.764 40.1818 48.596C40.2778 48.332 40.4338 48.128 40.6498 47.984C40.8658 47.84 40.9978 47.756 41.0458 47.732C41.4298 47.492 41.7418 47.252 41.9818 47.012C42.2218 46.748 42.4258 46.328 42.5938 45.752L46.9858 30.236C47.0818 29.924 47.1298 29.624 47.1298 29.336C47.1298 29.072 47.0818 28.856 46.9858 28.688C46.9138 28.496 46.8058 28.28 46.6618 28.04C46.4458 27.728 46.3378 27.476 46.3378 27.284C46.3378 27.212 46.3618 27.08 46.4098 26.888C46.5058 26.576 46.7098 26.36 47.0218 26.24C47.3578 26.096 47.8618 26.024 48.5338 26.024H56.9938Z" fill="white"/>
</svg>
